<?xml version="1.0" encoding="UTF-8"?>
<svg xmlns="http://www.w3.org/2000/svg" viewBox="0 0 1024 1024" width="1024px" height="1024px">
    
    <!-- Definition for the round shape mask and custom font -->
    <defs>
        <style>
            @font-face {
                font-family: 'Roboto Serif';
                src: url('https://raw.githubusercontent.com/Vviinncceenntt/fonts/main/roboto-serif/robotoserif-regular.ttf') format('truetype');
                font-weight: normal;
                font-style: normal;
            }
            @font-face {
                font-family: 'Parisienne';
                src: url('https://raw.githubusercontent.com/Vviinncceenntt/fonts/main/parisienne/parisienne-regular.ttf') format('truetype');
                font-weight: normal;
                font-style: normal;
            }
        </style>
        <clipPath id="circleClip">
            <circle cx="512" cy="512" r="512" />
        </clipPath>
    </defs>

    <!-- Base Camouflage Wrapper -->
    <g clip-path="url(#circleClip)">
        
        <!-- Base Background Color -->
        <circle cx="512" cy="512" r="512" fill="#6A161F" />
        
        <!-- Generated Procedural Camouflage Blobs -->
        <path d="M 1059.9,249.9 C 1043.5,374.2 957.7,406.7 851.8,465.5 C 745.9,524.3 754.0,475.2 636.2,485.2 C 518.5,495.2 460.4,564.3 380.7,505.5 C 301.0,446.7 316.5,376.9 317.4,249.9 C 318.3,123.0 304.5,79.7 384.2,-2.1 C 463.9,-83.9 502.9,-70.0 636.2,-77.3 C 769.6,-84.6 811.6,-113.1 917.5,-31.3 C 1023.4,50.5 1076.3,125.7 1059.9,249.9 Z" fill="#A62635" />
        <path d="M 412.9,310.1 C 415.8,365.2 391.9,394.9 346.2,426.2 C 300.5,457.6 290.8,432.8 230.0,435.5 C 169.2,438.2 132.3,468.3 103.1,436.9 C 73.9,405.6 106.3,366.5 113.3,310.1 C 120.3,253.6 101.9,251.8 131.1,211.2 C 160.3,170.5 179.2,148.8 230.0,147.5 C 280.8,146.1 288.6,165.1 334.3,205.7 C 380.0,246.4 409.9,254.9 412.9,310.1 Z" fill="#4A0F15" />
        <path d="M 1147.5,411.5 C 1127.7,544.9 1072.5,571.3 971.7,638.6 C 871.0,705.9 858.1,680.8 744.6,680.7 C 631.1,680.6 610.7,705.6 517.8,638.3 C 424.9,571.0 380.3,532.2 373.0,411.5 C 365.6,290.7 395.4,214.3 488.3,155.2 C 581.3,96.0 603.9,187.4 744.6,174.8 C 885.3,162.3 950.4,45.8 1051.1,105.0 C 1151.8,164.1 1167.4,278.1 1147.5,411.5 Z" fill="#8C1D2A" />
        <path d="M 124.9,32.4 C 112.7,118.7 139.0,120.9 94.3,180.6 C 49.6,240.3 38.3,253.0 -53.9,271.1 C -146.2,289.2 -220.5,312.6 -274.5,252.9 C -328.6,193.3 -270.3,142.4 -270.1,32.4 C -269.9,-77.7 -327.7,-112.4 -273.7,-187.4 C -219.6,-262.3 -158.1,-273.3 -53.9,-267.6 C 50.2,-261.9 98.4,-239.7 143.1,-164.7 C 187.8,-89.7 137.1,-54.0 124.9,32.4 Z" fill="#8C1D2A" />
        <path d="M 819.6,226.6 C 840.0,321.0 923.0,420.0 881.0,456.3 C 838.9,492.5 742.1,395.7 651.3,371.6 C 560.5,347.6 575.5,396.4 517.8,360.2 C 460.0,323.9 434.2,307.3 420.3,226.6 C 406.3,145.9 404.3,94.2 462.1,37.4 C 519.8,-19.4 567.0,-10.9 651.3,-0.6 C 735.6,9.8 757.2,21.9 799.3,78.7 C 841.3,135.5 799.2,132.2 819.6,226.6 Z" fill="#4A0F15" />
        <path d="M 714.2,670.0 C 693.4,751.7 715.4,747.2 675.2,791.7 C 635.0,836.3 634.2,828.4 553.5,848.3 C 472.7,868.1 423.4,915.8 352.2,871.3 C 281.1,826.7 271.5,773.1 269.0,670.0 C 266.5,566.9 271.1,531.8 342.2,458.8 C 413.4,385.8 449.4,376.4 553.5,378.0 C 657.5,379.5 718.3,392.0 758.5,465.0 C 798.7,538.0 735.1,588.4 714.2,670.0 Z" fill="#A62635" />
        <path d="M 538.7,662.2 C 533.9,727.7 542.9,728.5 503.8,783.7 C 464.7,838.9 444.6,881.4 382.3,883.0 C 320.0,884.5 302.5,845.0 254.7,789.9 C 206.8,734.7 197.1,732.2 190.9,662.2 C 184.7,592.2 182.0,558.7 229.8,509.7 C 277.7,460.7 309.0,463.3 382.3,466.3 C 455.6,469.3 483.9,472.6 523.0,521.5 C 562.1,570.5 543.5,596.7 538.7,662.2 Z" fill="#D94856" />
        <path d="M 506.3,79.0 C 511.8,144.8 544.2,192.9 509.3,221.5 C 474.4,250.2 432.7,199.1 366.7,193.7 C 300.8,188.3 299.9,228.8 245.6,200.1 C 191.4,171.4 142.8,132.5 149.8,79.0 C 156.8,25.4 219.3,17.4 273.6,-14.2 C 327.8,-45.7 313.2,-40.3 366.7,-47.2 C 420.2,-54.1 452.6,-73.4 487.5,-41.8 C 522.4,-10.3 500.9,13.1 506.3,79.0 Z" fill="#2A080C" />
        <path d="M 76.3,457.1 C 70.8,538.5 106.3,581.6 65.8,608.8 C 25.2,635.9 -16.3,572.0 -85.9,565.8 C -155.5,559.5 -170.3,610.9 -212.5,583.8 C -254.8,556.6 -261.0,514.4 -255.0,457.1 C -248.9,399.8 -230.6,395.2 -188.3,354.7 C -146.1,314.1 -155.0,312.6 -85.9,294.7 C -16.8,276.9 47.4,242.6 88.0,283.2 C 128.5,323.8 81.9,375.7 76.3,457.1 Z" fill="#4A0F15" />
        <path d="M 757.1,620.1 C 748.5,715.1 709.2,704.9 635.6,793.0 C 562.1,881.1 535.1,986.5 462.8,972.4 C 390.5,958.3 401.2,824.6 346.3,736.6 C 291.5,648.5 275.5,710.5 243.3,620.1 C 211.2,529.7 162.7,431.1 217.6,375.0 C 272.5,318.8 349.7,386.1 462.8,395.6 C 575.8,405.2 596.3,357.0 669.8,413.1 C 743.4,469.2 765.6,525.1 757.1,620.1 Z" fill="#2A080C" />
        <path d="M 794.0,908.9 C 781.7,993.6 704.0,976.0 625.7,1053.9 C 547.4,1131.8 550.6,1223.1 480.7,1220.4 C 410.9,1217.7 417.6,1121.1 346.3,1043.2 C 275.0,965.4 193.7,974.2 195.5,908.9 C 197.4,843.5 282.5,848.2 353.8,781.9 C 425.1,715.7 400.5,660.6 480.7,643.8 C 560.9,627.1 596.3,648.7 674.7,714.9 C 753.0,781.2 806.2,824.1 794.0,908.9 Z" fill="#A62635" />
        <path d="M 779.9,342.5 C 784.2,380.5 738.5,395.0 696.5,427.1 C 654.6,459.2 662.1,463.0 612.0,470.8 C 561.9,478.6 524.5,490.4 496.2,458.3 C 467.9,426.3 487.8,389.6 498.7,342.5 C 509.6,295.5 511.3,307.0 539.6,270.2 C 568.0,233.4 577.1,194.0 612.0,195.3 C 646.9,196.6 637.2,238.5 679.2,275.3 C 721.2,312.1 775.6,304.6 779.9,342.5 Z" fill="#8C1D2A" />
        <path d="M 1109.6,390.8 C 1125.0,464.4 1098.3,507.8 1035.2,568.9 C 972.2,629.9 932.6,648.7 857.2,635.1 C 781.8,621.4 787.7,575.3 733.7,514.3 C 679.8,453.2 634.0,445.3 641.2,390.8 C 648.4,336.3 708.7,357.7 762.7,296.3 C 816.7,235.0 804.5,151.0 857.2,145.5 C 909.9,140.0 910.6,213.0 973.6,274.4 C 1036.7,335.7 1094.2,317.2 1109.6,390.8 Z" fill="#8C1D2A" />
        <path d="M 1368.4,960.9 C 1367.7,1084.7 1411.2,1158.0 1343.5,1206.9 C 1275.7,1255.8 1197.1,1179.8 1097.5,1156.4 C 997.8,1133.1 1040.1,1162.5 944.8,1113.6 C 849.5,1064.7 737.4,1058.3 716.4,960.9 C 695.4,863.6 765.5,819.8 860.8,724.2 C 956.0,628.6 976.0,581.5 1097.5,578.5 C 1218.9,575.4 1278.7,616.3 1346.5,711.9 C 1414.2,807.5 1369.2,837.2 1368.4,960.9 Z" fill="#4A0F15" />
        <path d="M 479.3,539.9 C 492.4,641.2 448.3,684.6 361.7,768.8 C 275.1,853.1 244.9,879.4 132.8,877.0 C 20.7,874.6 -24.4,843.5 -86.6,759.2 C -148.7,675.0 -119.0,646.6 -115.9,539.9 C -112.9,433.3 -136.7,387.8 -74.5,332.6 C -12.3,277.5 36.9,311.5 132.8,319.3 C 228.7,327.0 222.6,308.3 309.2,363.5 C 395.8,418.7 466.1,438.6 479.3,539.9 Z" fill="#A62635" />
        <path d="M 418.8,978.2 C 415.3,1110.4 439.7,1144.1 361.0,1235.5 C 282.2,1326.8 245.5,1330.4 103.8,1343.6 C -38.0,1356.7 -123.4,1379.2 -205.9,1287.9 C -288.4,1196.6 -260.9,1098.3 -226.1,978.2 C -191.3,858.2 -149.2,864.6 -66.7,807.8 C 15.8,751.0 -6.7,776.2 103.8,751.0 C 214.2,725.9 296.2,650.2 375.0,707.0 C 453.7,763.8 422.3,846.1 418.8,978.2 Z" fill="#2A080C" />
        <path d="M 469.4,471.8 C 454.0,530.6 410.9,523.4 362.5,558.7 C 314.0,593.9 312.6,619.1 275.6,612.7 C 238.6,606.3 258.6,568.3 214.3,533.1 C 170.0,497.8 100.9,505.0 98.3,471.8 C 95.7,438.6 159.7,438.5 204.0,400.2 C 248.3,361.9 220.6,337.9 275.6,318.6 C 330.6,299.4 375.7,285.0 424.1,323.3 C 472.6,361.6 484.8,412.9 469.4,471.8 Z" fill="#A62635" />
        <path d="M 846.9,524.8 C 836.0,561.2 777.1,537.4 736.8,575.9 C 696.5,614.3 719.7,670.1 685.7,678.6 C 651.7,687.1 646.7,648.2 600.7,609.8 C 554.8,571.3 508.3,573.7 501.9,524.8 C 495.4,475.9 529.0,452.4 574.9,414.0 C 620.9,375.6 634.3,367.2 685.7,371.3 C 737.1,375.3 740.1,391.7 780.4,430.1 C 820.7,468.5 857.8,488.4 846.9,524.8 Z" fill="#D94856" />
        <path d="M 1305.1,667.0 C 1305.0,716.6 1248.2,704.8 1196.3,765.9 C 1144.3,827.1 1141.9,916.6 1097.4,911.6 C 1052.9,906.7 1057.0,807.2 1018.3,746.1 C 979.6,684.9 962.7,726.7 942.5,667.0 C 922.4,607.4 899.2,537.1 937.9,507.5 C 976.6,477.9 1032.7,533.4 1097.4,548.4 C 1162.1,563.5 1144.8,538.0 1196.7,567.7 C 1248.7,597.3 1305.3,617.5 1305.1,667.0 Z" fill="#8C1D2A" />
        <path d="M 970.8,370.8 C 954.2,448.8 888.6,405.5 820.3,493.6 C 752.0,581.7 777.7,704.6 697.5,723.3 C 617.4,742.1 549.0,656.7 499.8,568.6 C 450.5,480.5 508.2,477.5 500.4,370.8 C 492.6,264.2 419.3,210.3 468.6,141.9 C 517.9,73.4 593.0,87.1 697.5,97.0 C 802.1,106.9 818.5,113.1 886.8,181.6 C 955.1,250.0 987.4,292.8 970.8,370.8 Z" fill="#D94856" />
        <path d="M 854.7,630.2 C 847.0,774.4 802.7,800.6 694.4,903.2 C 586.1,1005.7 555.3,1042.9 421.4,1040.4 C 287.4,1037.8 213.5,995.6 158.5,893.0 C 103.5,790.5 190.9,751.0 201.5,630.2 C 212.0,509.3 145.8,494.5 200.8,409.6 C 255.8,324.7 290.2,311.4 421.4,290.5 C 552.5,269.7 617.0,241.3 725.4,326.2 C 833.7,411.1 862.4,485.9 854.7,630.2 Z" fill="#8C1D2A" />
        <path d="M 463.1,341.5 C 472.1,421.2 426.2,470.6 354.7,519.0 C 283.3,567.4 265.7,535.3 177.2,535.1 C 88.7,534.9 72.8,566.4 0.7,518.0 C -71.5,469.6 -117.4,423.8 -111.5,341.5 C -105.5,259.1 -47.7,260.7 24.4,188.7 C 96.6,116.6 103.7,50.5 177.2,53.3 C 250.8,56.2 247.1,128.1 318.6,200.1 C 390.0,272.1 454.0,261.7 463.1,341.5 Z" fill="#8C1D2A" />
        <path d="M 632.9,766.9 C 640.2,909.2 704.0,991.5 628.0,1066.2 C 551.9,1140.8 448.9,1095.0 328.7,1065.5 C 208.5,1036.1 239.4,1023.1 147.1,948.5 C 54.9,873.8 -8.4,889.6 -40.3,766.9 C -72.2,644.2 -72.7,564.5 19.6,457.8 C 111.8,351.1 183.9,330.4 328.7,340.1 C 473.5,349.9 522.7,390.1 598.8,496.8 C 674.8,603.5 625.6,624.6 632.9,766.9 Z" fill="#2A080C" />
        <path d="M 777.7,676.4 C 775.1,720.6 787.9,728.8 763.5,759.7 C 739.1,790.5 722.7,798.9 680.2,799.8 C 637.6,800.8 631.0,794.3 593.2,763.4 C 555.3,732.5 526.6,717.7 528.8,676.4 C 530.9,635.0 564.0,628.8 601.9,598.1 C 639.7,567.3 637.1,557.2 680.2,553.4 C 723.2,549.5 749.5,551.9 773.9,582.6 C 798.3,613.4 780.4,632.1 777.7,676.4 Z" fill="#D94856" />
        <path d="M 485.5,177.8 C 496.9,257.9 461.7,275.9 392.7,361.1 C 323.6,446.4 292.5,527.1 209.3,518.7 C 126.1,510.2 115.7,412.6 59.7,327.3 C 3.7,242.1 -2.3,265.0 -14.7,177.8 C -27.2,90.5 -46.0,37.7 10.0,-21.6 C 66.0,-80.8 125.1,-74.6 209.3,-59.1 C 293.5,-43.6 277.7,-18.9 346.7,40.3 C 415.7,99.6 474.0,97.6 485.5,177.8 Z" fill="#A62635" />
        <path d="M 467.7,762.2 C 475.0,812.7 428.7,812.0 377.2,877.9 C 325.6,943.8 329.2,1016.0 261.5,1025.9 C 193.7,1035.7 176.5,983.3 106.3,917.3 C 36.1,851.4 -22.6,836.5 -19.4,762.2 C -16.1,687.8 48.9,675.7 119.1,619.8 C 189.3,564.0 204.2,524.8 261.5,538.7 C 318.7,552.7 296.5,619.8 348.0,675.6 C 399.6,731.5 460.4,711.6 467.7,762.2 Z" fill="#2A080C" />
        <path d="M 397.1,129.2 C 398.1,175.5 443.2,198.1 427.0,223.7 C 410.9,249.2 379.5,231.8 332.6,231.4 C 285.8,231.1 277.8,247.7 239.7,222.2 C 201.5,196.6 179.9,175.7 180.0,129.2 C 180.0,82.8 201.8,69.1 239.9,36.6 C 278.1,4.0 286.8,-1.6 332.6,-1.1 C 378.5,-0.6 407.2,6.0 423.3,38.6 C 439.4,71.1 396.2,83.0 397.1,129.2 Z" fill="#D94856" />
        <path d="M 96.2,799.6 C 110.4,876.7 141.9,900.0 96.3,982.2 C 50.7,1064.4 -5.8,1139.3 -86.3,1128.5 C -166.8,1117.6 -155.1,1021.1 -225.6,938.9 C -296.1,856.6 -371.4,866.1 -368.3,799.6 C -365.3,733.0 -283.8,730.6 -213.3,672.6 C -142.8,614.6 -149.6,567.2 -86.3,567.4 C -23.1,567.7 -6.0,615.5 39.7,673.6 C 85.3,731.6 82.1,722.4 96.2,799.6 Z" fill="#8C1D2A" />
        <path d="M 589.1,-47.5 C 599.3,36.4 637.0,72.4 590.3,140.8 C 543.5,209.2 506.0,216.2 402.0,226.1 C 297.9,236.0 245.2,248.8 174.0,180.4 C 102.9,112.0 110.8,59.9 117.4,-47.5 C 124.0,-154.9 129.3,-170.6 200.4,-249.1 C 271.6,-327.6 314.8,-375.1 402.0,-361.5 C 489.2,-347.9 502.4,-273.2 549.2,-194.8 C 596.0,-116.3 578.8,-131.4 589.1,-47.5 Z" fill="#4A0F15" />
        <path d="M 788.9,949.2 C 798.9,1004.4 753.2,1027.7 697.8,1079.7 C 642.4,1131.6 628.5,1161.1 567.3,1157.1 C 506.0,1153.2 490.4,1115.7 452.7,1063.7 C 415.0,1011.7 417.0,1006.9 416.6,949.2 C 416.1,891.4 413.2,880.3 450.9,832.8 C 488.5,785.2 515.6,752.5 567.3,759.0 C 618.9,765.5 602.1,811.3 657.5,858.9 C 713.0,906.4 778.8,894.0 788.9,949.2 Z" fill="#8C1D2A" />
        <path d="M 1106.6,783.8 C 1107.4,828.4 1136.6,849.7 1116.3,874.6 C 1096.0,899.5 1070.3,884.0 1025.4,883.5 C 980.6,882.9 962.1,897.4 936.7,872.5 C 911.4,847.6 924.5,828.7 923.9,783.8 C 923.4,738.9 909.1,718.8 934.5,692.8 C 959.9,666.9 980.8,679.0 1025.4,679.9 C 1070.1,680.7 1092.7,670.3 1112.9,696.3 C 1133.2,722.3 1105.7,739.2 1106.6,783.8 Z" fill="#D94856" />
        <path d="M 545.5,104.6 C 546.6,234.7 533.2,270.2 441.6,366.9 C 350.1,463.7 306.2,496.0 179.2,491.7 C 52.3,487.5 16.4,446.7 -66.1,349.9 C -148.6,253.1 -137.8,240.3 -150.8,104.6 C -163.8,-31.1 -200.6,-131.1 -118.1,-192.8 C -35.6,-254.5 40.4,-152.1 179.2,-142.2 C 318.1,-132.4 345.6,-215.1 437.2,-153.4 C 528.8,-91.7 544.4,-25.5 545.5,104.6 Z" fill="#2A080C" />
        <path d="M 1062.9,583.5 C 1042.2,699.5 1067.6,713.6 1005.6,774.0 C 943.7,834.4 927.1,808.4 815.1,825.1 C 703.2,841.8 626.3,901.2 557.8,840.8 C 489.4,780.3 528.9,699.7 541.3,583.5 C 553.7,467.2 539.0,438.6 607.5,375.8 C 675.9,313.0 694.8,348.6 815.1,332.1 C 935.4,315.7 1026.7,247.1 1088.6,310.0 C 1150.6,372.8 1083.7,467.5 1062.9,583.5 Z" fill="#A62635" />
        <path d="M 810.1,892.9 C 817.4,972.4 871.2,1033.9 833.7,1066.5 C 796.2,1099.1 723.3,1046.8 660.1,1023.2 C 596.8,999.6 644.3,1004.8 580.7,972.2 C 517.1,939.6 424.4,951.2 405.7,892.9 C 387.0,834.5 442.4,784.2 506.0,738.8 C 569.6,693.3 585.4,708.7 660.1,711.1 C 734.7,713.5 767.0,703.0 804.5,748.4 C 842.0,793.9 802.8,813.3 810.1,892.9 Z" fill="#D94856" />
        <path d="M 1222.6,120.4 C 1224.4,173.2 1125.7,187.2 1056.9,229.6 C 988.2,272.0 998.0,294.3 947.7,290.0 C 897.4,285.7 884.3,254.8 855.7,212.4 C 827.0,170.0 837.6,170.9 833.1,120.4 C 828.6,69.8 808.9,60.4 837.6,10.2 C 866.2,-39.9 894.7,-82.3 947.7,-80.3 C 1000.8,-78.3 981.0,-31.8 1049.7,18.4 C 1118.5,68.6 1220.8,67.6 1222.6,120.4 Z" fill="#D94856" />
        <path d="M 889.3,337.9 C 888.4,390.5 933.8,408.4 914.2,441.3 C 894.6,474.3 862.9,469.4 810.8,469.7 C 758.7,470.1 727.8,475.7 705.9,442.7 C 684.1,409.8 719.6,386.3 723.6,337.9 C 727.5,289.5 700.1,286.2 721.9,249.0 C 743.7,211.8 761.9,193.5 810.8,189.0 C 859.7,184.6 898.0,193.9 917.6,231.1 C 937.2,268.3 890.1,285.3 889.3,337.9 Z" fill="#8C1D2A" />
        <path d="M -3.3,-72.8 C -1.5,-27.9 40.7,-3.1 24.3,20.6 C 7.8,44.2 -25.4,24.9 -69.1,21.9 C -112.8,18.9 -124.9,32.3 -150.6,8.6 C -176.3,-15.0 -174.3,-34.4 -172.0,-72.8 C -169.7,-111.3 -167.2,-122.2 -141.4,-145.2 C -115.7,-168.1 -108.8,-161.2 -69.1,-164.7 C -29.4,-168.2 0.8,-182.2 17.3,-159.2 C 33.7,-136.2 -5.0,-117.8 -3.3,-72.8 Z" fill="#8C1D2A" />
        <path d="M 191.1,796.5 C 191.8,836.9 118.1,827.9 66.3,878.8 C 14.6,929.8 20.5,1005.0 -16.0,1000.3 C -52.4,995.6 -45.5,910.9 -79.4,859.9 C -113.3,809.0 -134.3,845.6 -151.7,796.5 C -169.0,747.4 -182.7,698.0 -148.8,663.7 C -114.9,629.4 -69.0,646.0 -16.0,659.4 C 37.1,672.7 11.6,682.8 63.4,717.1 C 115.2,751.4 190.4,756.1 191.1,796.5 Z" fill="#8C1D2A" />
        <path d="M 780.0,676.9 C 799.0,736.9 852.7,765.8 824.3,834.9 C 795.9,904.0 738.1,960.6 666.4,953.3 C 594.6,946.1 602.2,875.0 537.4,805.9 C 472.5,736.9 421.0,755.5 406.9,676.9 C 392.9,598.4 416.3,523.5 481.2,491.8 C 546.0,460.0 599.6,524.2 666.4,550.0 C 733.1,575.8 719.9,563.2 748.3,595.0 C 776.7,626.7 761.0,617.0 780.0,676.9 Z" fill="#4A0F15" />
        <path d="M 195.9,1086.3 C 192.3,1178.9 192.4,1187.0 131.9,1264.3 C 71.4,1341.5 28.4,1409.9 -46.1,1395.4 C -120.6,1381.0 -118.4,1283.7 -166.2,1206.4 C -213.9,1129.1 -214.0,1169.4 -237.1,1086.3 C -260.1,1003.2 -306.0,914.5 -258.3,874.1 C -210.5,833.7 -147.3,919.8 -46.1,924.7 C 55.1,929.6 86.0,853.4 146.5,893.8 C 207.0,934.2 199.6,993.7 195.9,1086.3 Z" fill="#2A080C" />
        <path d="M 523.9,129.9 C 549.3,229.7 517.9,285.2 432.4,380.3 C 347.0,475.4 302.7,514.8 182.1,510.3 C 61.4,505.7 45.8,457.2 -50.1,362.1 C -146.0,267.0 -185.1,262.4 -201.4,129.9 C -217.8,-2.5 -211.4,-104.2 -115.5,-167.6 C -19.6,-231.0 70.5,-160.9 182.1,-123.6 C 293.6,-86.3 245.1,-81.9 330.5,-18.5 C 416.0,44.8 498.4,30.2 523.9,129.9 Z" fill="#4A0F15" />
        <path d="M 1300.9,137.5 C 1296.8,214.4 1238.8,251.6 1169.5,283.1 C 1100.3,314.6 1100.7,259.6 1024.0,263.6 C 947.2,267.7 902.6,330.6 862.4,299.1 C 822.1,267.6 854.3,209.7 863.0,137.5 C 871.6,65.4 856.8,52.3 897.0,10.6 C 937.3,-31.1 951.8,-20.5 1024.0,-29.2 C 1096.1,-38.0 1116.5,-66.0 1185.8,-24.3 C 1255.0,17.4 1305.0,60.7 1300.9,137.5 Z" fill="#8C1D2A" />
        <path d="M 688.3,687.6 C 692.5,815.6 733.5,902.0 660.5,952.0 C 587.4,1002.1 515.9,900.0 396.0,887.7 C 276.1,875.4 272.6,952.9 180.7,902.9 C 88.8,852.9 10.6,777.5 28.4,687.6 C 46.1,597.7 159.9,601.7 251.8,543.4 C 343.7,485.1 298.0,480.3 396.0,454.5 C 494.0,428.6 570.6,381.6 643.7,439.9 C 716.7,498.2 684.1,559.6 688.3,687.6 Z" fill="#2A080C" />
        <path d="M 462.2,-30.3 C 442.3,83.6 386.3,80.0 298.3,157.8 C 210.2,235.7 223.4,261.8 110.1,281.0 C -3.2,300.3 -64.8,312.6 -155.0,234.8 C -245.2,156.9 -277.9,75.1 -250.8,-30.3 C -223.8,-135.8 -136.9,-114.9 -46.7,-187.1 C 43.6,-259.3 4.0,-291.4 110.1,-319.1 C 216.2,-346.8 289.7,-370.2 377.7,-298.0 C 465.7,-225.8 482.1,-144.3 462.2,-30.3 Z" fill="#A62635" />
        <path d="M 493.8,-44.9 C 487.4,-4.5 514.2,-10.8 498.4,23.2 C 482.5,57.1 466.9,88.3 430.3,90.8 C 393.8,93.3 379.4,67.1 352.3,33.2 C 325.2,-0.8 327.0,-0.9 322.0,-44.9 C 317.1,-88.9 305.3,-109.9 332.4,-142.9 C 359.4,-175.9 382.5,-178.1 430.3,-176.9 C 478.2,-175.8 507.9,-171.3 523.7,-138.3 C 539.6,-105.3 500.1,-85.2 493.8,-44.9 Z" fill="#2A080C" />

        
        <!-- Inner Bezel Ring (Simulates 3D casing) -->
        <circle cx="512" cy="512" r="508" fill="none" stroke="#ffffff" stroke-width="4" opacity="0.15" />
        <circle cx="512" cy="512" r="512" fill="none" stroke="#2B070B" stroke-width="12" opacity="0.6" />

        <!-- Calculator Display Screen -->
        <g>
            <!-- Screen Shadow Base -->
            <rect x="220" y="158" width="584" height="220" rx="35" fill="#000000" opacity="0.4" />
            <!-- Inner Screen -->
            <rect x="220" y="150" width="584" height="220" rx="35" fill="#110506" />
            <!-- Screen Rim Border -->
            <rect x="220" y="150" width="584" height="220" rx="35" fill="none" stroke="#2A080C" stroke-width="4" />
            <!-- Screen Glass Reflection -->
            <path d="M 220 220 Q 512 250 804 220 L 804 150 Q 512 170 220 150 Z" fill="#ffffff" opacity="0.04" />
            
            <!-- Display Text -->
            <text x="760" y="315" font-family="'Parisienne', cursive" font-size="120" fill="#F8F8F8" text-anchor="end" font-weight="normal" letter-spacing="-2">Vincent</text>
        </g>

        <!-- Buttons Grid -->

        <!-- Button: 7 -->
        <g>
            <!-- Drop Shadow for compatibility without filters -->
            <circle cx="287" cy="465" r="60" fill="#000000" opacity="0.4" />
            
            <!-- Main Button Face -->
            <circle cx="287" cy="460" r="60" fill="#161616" />
            
            <!-- Button Text -->
            <!-- Adjusted Y to optically center text inside circle -->
            <text x="287" y="482" font-family="'Roboto Serif', serif" font-size="60" fill="#FFFFFF" text-anchor="middle" font-weight="bold">7</text>
        </g>

        <!-- Button: 8 -->
        <g>
            <!-- Drop Shadow for compatibility without filters -->
            <circle cx="437" cy="465" r="60" fill="#000000" opacity="0.4" />
            
            <!-- Main Button Face -->
            <circle cx="437" cy="460" r="60" fill="#161616" />
            
            <!-- Button Text -->
            <!-- Adjusted Y to optically center text inside circle -->
            <text x="437" y="482" font-family="'Roboto Serif', serif" font-size="60" fill="#FFFFFF" text-anchor="middle" font-weight="bold">8</text>
        </g>

        <!-- Button: 9 -->
        <g>
            <!-- Drop Shadow for compatibility without filters -->
            <circle cx="587" cy="465" r="60" fill="#000000" opacity="0.4" />
            
            <!-- Main Button Face -->
            <circle cx="587" cy="460" r="60" fill="#161616" />
            
            <!-- Button Text -->
            <!-- Adjusted Y to optically center text inside circle -->
            <text x="587" y="482" font-family="'Roboto Serif', serif" font-size="60" fill="#FFFFFF" text-anchor="middle" font-weight="bold">9</text>
        </g>

        <!-- Button: ÷ -->
        <g>
            <!-- Drop Shadow for compatibility without filters -->
            <circle cx="737" cy="465" r="60" fill="#000000" opacity="0.4" />
            
            <!-- Main Button Face -->
            <circle cx="737" cy="460" r="60" fill="#3D0B11" />
            
            <!-- Button Text -->
            <!-- Adjusted Y to optically center text inside circle -->
            <text x="737" y="482" font-family="'Roboto Serif', serif" font-size="60" fill="#FFFFFF" text-anchor="middle" font-weight="bold">÷</text>
        </g>

        <!-- Button: 4 -->
        <g>
            <!-- Drop Shadow for compatibility without filters -->
            <circle cx="287" cy="600" r="60" fill="#000000" opacity="0.4" />
            
            <!-- Main Button Face -->
            <circle cx="287" cy="595" r="60" fill="#161616" />
            
            <!-- Button Text -->
            <!-- Adjusted Y to optically center text inside circle -->
            <text x="287" y="617" font-family="'Roboto Serif', serif" font-size="60" fill="#FFFFFF" text-anchor="middle" font-weight="bold">4</text>
        </g>

        <!-- Button: 5 -->
        <g>
            <!-- Drop Shadow for compatibility without filters -->
            <circle cx="437" cy="600" r="60" fill="#000000" opacity="0.4" />
            
            <!-- Main Button Face -->
            <circle cx="437" cy="595" r="60" fill="#161616" />
            
            <!-- Button Text -->
            <!-- Adjusted Y to optically center text inside circle -->
            <text x="437" y="617" font-family="'Roboto Serif', serif" font-size="60" fill="#FFFFFF" text-anchor="middle" font-weight="bold">5</text>
        </g>

        <!-- Button: 6 -->
        <g>
            <!-- Drop Shadow for compatibility without filters -->
            <circle cx="587" cy="600" r="60" fill="#000000" opacity="0.4" />
            
            <!-- Main Button Face -->
            <circle cx="587" cy="595" r="60" fill="#161616" />
            
            <!-- Button Text -->
            <!-- Adjusted Y to optically center text inside circle -->
            <text x="587" y="617" font-family="'Roboto Serif', serif" font-size="60" fill="#FFFFFF" text-anchor="middle" font-weight="bold">6</text>
        </g>

        <!-- Button: × -->
        <g>
            <!-- Drop Shadow for compatibility without filters -->
            <circle cx="737" cy="600" r="60" fill="#000000" opacity="0.4" />
            
            <!-- Main Button Face -->
            <circle cx="737" cy="595" r="60" fill="#3D0B11" />
            
            <!-- Button Text -->
            <!-- Adjusted Y to optically center text inside circle -->
            <text x="737" y="617" font-family="'Roboto Serif', serif" font-size="60" fill="#FFFFFF" text-anchor="middle" font-weight="bold">×</text>
        </g>

        <!-- Button: 1 -->
        <g>
            <!-- Drop Shadow for compatibility without filters -->
            <circle cx="287" cy="735" r="60" fill="#000000" opacity="0.4" />
            
            <!-- Main Button Face -->
            <circle cx="287" cy="730" r="60" fill="#161616" />
            
            <!-- Button Text -->
            <!-- Adjusted Y to optically center text inside circle -->
            <text x="287" y="752" font-family="'Roboto Serif', serif" font-size="60" fill="#FFFFFF" text-anchor="middle" font-weight="bold">1</text>
        </g>

        <!-- Button: 2 -->
        <g>
            <!-- Drop Shadow for compatibility without filters -->
            <circle cx="437" cy="735" r="60" fill="#000000" opacity="0.4" />
            
            <!-- Main Button Face -->
            <circle cx="437" cy="730" r="60" fill="#161616" />
            
            <!-- Button Text -->
            <!-- Adjusted Y to optically center text inside circle -->
            <text x="437" y="752" font-family="'Roboto Serif', serif" font-size="60" fill="#FFFFFF" text-anchor="middle" font-weight="bold">2</text>
        </g>

        <!-- Button: 3 -->
        <g>
            <!-- Drop Shadow for compatibility without filters -->
            <circle cx="587" cy="735" r="60" fill="#000000" opacity="0.4" />
            
            <!-- Main Button Face -->
            <circle cx="587" cy="730" r="60" fill="#161616" />
            
            <!-- Button Text -->
            <!-- Adjusted Y to optically center text inside circle -->
            <text x="587" y="752" font-family="'Roboto Serif', serif" font-size="60" fill="#FFFFFF" text-anchor="middle" font-weight="bold">3</text>
        </g>

        <!-- Button: − -->
        <g>
            <!-- Drop Shadow for compatibility without filters -->
            <circle cx="737" cy="735" r="60" fill="#000000" opacity="0.4" />
            
            <!-- Main Button Face -->
            <circle cx="737" cy="730" r="60" fill="#3D0B11" />
            
            <!-- Button Text -->
            <!-- Adjusted Y to optically center text inside circle -->
            <text x="737" y="752" font-family="'Roboto Serif', serif" font-size="60" fill="#FFFFFF" text-anchor="middle" font-weight="bold">−</text>
        </g>

        <!-- Button: C -->
        <g>
            <!-- Drop Shadow for compatibility without filters -->
            <circle cx="287" cy="870" r="60" fill="#000000" opacity="0.4" />
            
            <!-- Main Button Face -->
            <circle cx="287" cy="865" r="60" fill="#E5E5E5" />
            
            <!-- Button Text -->
            <!-- Adjusted Y to optically center text inside circle -->
            <text x="287" y="887" font-family="'Roboto Serif', serif" font-size="60" fill="#961923" text-anchor="middle" font-weight="bold">C</text>
        </g>

        <!-- Button: 0 -->
        <g>
            <!-- Drop Shadow for compatibility without filters -->
            <circle cx="437" cy="870" r="60" fill="#000000" opacity="0.4" />
            
            <!-- Main Button Face -->
            <circle cx="437" cy="865" r="60" fill="#161616" />
            
            <!-- Button Text -->
            <!-- Adjusted Y to optically center text inside circle -->
            <text x="437" y="887" font-family="'Roboto Serif', serif" font-size="60" fill="#FFFFFF" text-anchor="middle" font-weight="bold">0</text>
        </g>

        <!-- Button: = -->
        <g>
            <!-- Drop Shadow for compatibility without filters -->
            <circle cx="587" cy="870" r="60" fill="#000000" opacity="0.4" />
            
            <!-- Main Button Face -->
            <circle cx="587" cy="865" r="60" fill="#E5E5E5" />
            
            <!-- Button Text -->
            <!-- Adjusted Y to optically center text inside circle -->
            <text x="587" y="887" font-family="'Roboto Serif', serif" font-size="60" fill="#961923" text-anchor="middle" font-weight="bold">=</text>
        </g>

        <!-- Button: + -->
        <g>
            <!-- Drop Shadow for compatibility without filters -->
            <circle cx="737" cy="870" r="60" fill="#000000" opacity="0.4" />
            
            <!-- Main Button Face -->
            <circle cx="737" cy="865" r="60" fill="#3D0B11" />
            
            <!-- Button Text -->
            <!-- Adjusted Y to optically center text inside circle -->
            <text x="737" y="887" font-family="'Roboto Serif', serif" font-size="60" fill="#FFFFFF" text-anchor="middle" font-weight="bold">+</text>
        </g>

    </g>
</svg>