<?xml version="1.0" encoding="UTF-8"?>
<svg xmlns="http://www.w3.org/2000/svg" viewBox="0 0 1024 1024" width="1024px" height="1024px">
    
    <!-- Definition for the round shape mask and custom font -->
    <defs>
        <style>
            @font-face {
                font-family: 'Lato';
                src: url('https://raw.githubusercontent.com/Vviinncceenntt/fonts/main/lato2ofl/lato-regular.ttf') format('truetype');
                font-weight: normal;
                font-style: normal;
            }
            @font-face {
                font-family: 'Parisienne';
                src: url('https://raw.githubusercontent.com/Vviinncceenntt/fonts/main/parisienne/parisienne-regular.ttf') format('truetype');
                font-weight: normal;
                font-style: normal;
            }
        </style>
        <clipPath id="circleClip">
            <circle cx="512" cy="512" r="512" />
        </clipPath>
    </defs>

    <!-- Base Camouflage Wrapper -->
    <g clip-path="url(#circleClip)">
        
        <!-- Base Background Color -->
        <circle cx="512" cy="512" r="512" fill="#6A161F" />
        
        <!-- Generated Procedural Camouflage Blobs -->
        <path d="M 839.0,1067.6 C 826.8,1195.1 922.4,1230.7 873.3,1298.3 C 824.2,1365.9 733.0,1363.0 642.6,1338.1 C 552.2,1313.1 611.2,1266.1 511.7,1198.5 C 412.2,1130.8 277.6,1166.1 244.6,1067.6 C 211.5,969.0 279.9,863.3 379.4,804.4 C 478.9,745.5 507.0,836.1 642.6,832.0 C 778.2,828.0 872.7,729.4 921.8,788.3 C 970.9,847.2 851.1,940.1 839.0,1067.6 Z" fill="#8C1D2A" />
        <path d="M 691.5,827.5 C 697.9,872.7 680.2,892.2 642.0,930.7 C 603.8,969.3 595.6,976.5 538.7,981.7 C 481.8,987.0 462.2,990.4 414.4,951.8 C 366.7,913.3 361.7,903.6 347.7,827.5 C 333.8,751.4 310.7,686.4 358.5,647.3 C 406.2,608.2 474.3,645.3 538.7,671.1 C 603.1,696.8 577.9,711.0 616.1,750.1 C 654.3,789.2 685.0,782.3 691.5,827.5 Z" fill="#2A080C" />
        <path d="M 752.4,33.5 C 749.7,81.3 785.6,89.1 766.6,123.7 C 747.6,158.3 723.0,170.4 676.4,171.9 C 629.7,173.5 600.7,164.4 580.0,129.8 C 559.3,95.2 603.4,91.4 593.6,33.5 C 583.8,-24.5 520.1,-68.9 540.8,-102.1 C 561.5,-135.3 617.2,-108.1 676.4,-99.5 C 735.5,-90.8 758.5,-100.9 777.5,-67.7 C 796.5,-34.4 755.1,-14.4 752.4,33.5 Z" fill="#4A0F15" />
        <path d="M 641.5,213.7 C 638.0,286.0 475.6,263.4 374.4,351.3 C 273.2,439.3 312.0,559.0 236.8,565.5 C 161.5,571.9 166.8,465.1 73.3,377.1 C -20.2,289.2 -115.8,316.8 -137.2,213.7 C -158.6,110.6 -105.7,34.4 -12.2,-35.3 C 81.3,-105.0 136.6,-89.3 236.8,-65.0 C 336.9,-40.7 287.3,-7.8 388.5,61.9 C 489.7,131.6 645.0,141.3 641.5,213.7 Z" fill="#8C1D2A" />
        <path d="M 725.3,167.2 C 713.0,245.6 714.2,264.7 666.4,299.5 C 618.6,334.3 599.3,307.2 534.1,306.3 C 468.9,305.4 470.8,330.5 405.5,295.8 C 340.2,261.0 262.6,221.1 273.0,167.2 C 283.3,113.3 381.7,132.6 447.0,80.1 C 512.3,27.6 467.0,-19.1 534.1,-42.7 C 601.2,-66.3 667.7,-66.7 715.5,-14.2 C 763.3,38.3 737.5,88.8 725.3,167.2 Z" fill="#A62635" />
        <path d="M 1306.3,718.3 C 1279.1,810.4 1169.5,796.5 1080.6,848.1 C 991.7,899.8 1032.7,907.9 950.7,924.9 C 868.8,941.9 827.8,967.9 752.7,916.3 C 677.7,864.6 630.8,797.5 650.5,718.3 C 670.3,639.0 756.7,649.6 831.7,599.2 C 906.7,548.9 861.3,546.7 950.7,516.8 C 1040.1,486.9 1100.4,429.3 1189.3,479.7 C 1278.2,530.1 1333.4,626.2 1306.3,718.3 Z" fill="#4A0F15" />
        <path d="M 1167.7,577.8 C 1176.5,638.3 1185.5,686.2 1145.3,716.5 C 1105.0,746.8 1075.5,699.2 1006.5,698.9 C 937.5,698.5 897.6,745.5 869.1,715.2 C 840.6,684.9 878.9,632.7 892.6,577.8 C 906.3,522.8 895.5,525.1 924.0,495.2 C 952.4,465.4 960.0,463.6 1006.5,458.4 C 1053.0,453.2 1069.5,444.6 1109.8,474.4 C 1150.1,504.3 1158.8,517.2 1167.7,577.8 Z" fill="#2A080C" />
        <path d="M 454.9,729.9 C 446.8,823.8 364.0,802.0 276.5,901.4 C 189.0,1000.8 191.9,1126.4 105.0,1127.5 C 18.1,1128.6 6.9,1005.3 -71.0,905.9 C -148.9,806.5 -220.8,803.7 -206.6,729.9 C -192.5,656.1 -92.2,698.5 -14.3,610.6 C 63.6,522.7 24.2,399.3 105.0,378.2 C 185.8,357.0 221.4,438.1 308.9,526.0 C 396.4,614.0 463.0,636.1 454.9,729.9 Z" fill="#4A0F15" />
        <path d="M 208.5,807.1 C 196.4,849.9 191.5,840.0 165.3,868.5 C 139.2,896.9 141.5,914.0 104.0,920.9 C 66.5,927.7 51.3,924.3 15.2,895.9 C -20.8,867.5 -49.7,842.0 -40.2,807.1 C -30.6,772.3 17.4,799.5 53.4,756.6 C 89.5,713.6 64.0,650.2 104.0,635.4 C 144.1,620.6 187.5,654.6 213.6,697.5 C 239.7,740.5 220.5,764.4 208.5,807.1 Z" fill="#4A0F15" />
        <path d="M 307.5,177.6 C 287.0,271.2 230.3,243.1 155.8,323.8 C 81.3,404.6 88.9,494.5 9.5,500.7 C -69.8,507.0 -102.2,429.6 -161.7,348.8 C -221.1,268.0 -224.4,266.9 -228.1,177.6 C -231.8,88.3 -235.9,68.5 -176.4,-8.4 C -117.0,-85.3 -94.0,-119.3 9.5,-129.9 C 113.1,-140.5 163.3,-127.5 237.8,-50.6 C 312.2,26.2 328.0,84.0 307.5,177.6 Z" fill="#4A0F15" />
        <path d="M 1017.0,303.2 C 998.1,426.6 1008.8,437.1 936.3,512.4 C 863.9,587.7 850.0,586.1 727.1,604.4 C 604.2,622.7 520.4,660.8 444.8,585.5 C 369.2,510.2 433.0,452.5 424.8,303.2 C 416.7,153.8 336.5,34.9 412.1,-11.9 C 487.7,-58.6 577.2,108.4 727.1,116.0 C 877.0,123.6 939.3,-28.2 1011.7,18.6 C 1084.2,65.4 1035.8,179.7 1017.0,303.2 Z" fill="#2A080C" />
        <path d="M 510.4,583.7 C 519.9,674.0 502.5,708.7 433.3,783.4 C 364.1,858.0 319.3,896.7 233.7,882.4 C 148.0,868.2 163.9,801.2 90.8,726.5 C 17.7,651.8 -70.8,643.0 -58.7,583.7 C -46.6,524.3 66.1,543.6 139.2,489.2 C 212.3,434.8 169.6,382.8 233.7,366.0 C 297.7,349.2 326.1,367.6 395.3,422.0 C 464.5,476.5 500.9,493.4 510.4,583.7 Z" fill="#2A080C" />
        <path d="M 1184.3,940.6 C 1201.1,1005.8 1133.6,1034.1 1062.0,1104.5 C 990.4,1174.9 990.5,1211.7 898.0,1222.2 C 805.6,1232.7 724.2,1217.0 692.1,1146.6 C 660.0,1076.2 759.3,1033.1 769.7,940.6 C 780.2,848.1 701.8,829.1 733.9,776.4 C 765.9,723.7 832.8,713.0 898.0,729.9 C 963.3,746.8 923.2,791.2 994.7,843.9 C 1066.3,896.6 1167.5,875.5 1184.3,940.6 Z" fill="#2A080C" />
        <path d="M 1252.4,634.1 C 1250.9,702.5 1217.0,711.9 1160.6,767.9 C 1104.2,823.9 1098.0,853.7 1026.8,858.0 C 955.6,862.3 911.6,841.2 875.7,785.2 C 839.9,729.2 864.5,690.6 883.5,634.1 C 902.5,577.6 915.9,588.3 951.8,559.0 C 987.6,529.8 973.1,533.3 1026.8,517.2 C 1080.5,501.0 1110.2,465.1 1166.6,494.4 C 1223.0,523.6 1253.9,565.7 1252.4,634.1 Z" fill="#D94856" />
        <path d="M 369.5,587.5 C 379.2,656.8 324.5,711.3 256.9,745.4 C 189.3,779.5 174.9,726.9 99.0,723.9 C 23.1,720.9 10.4,767.5 -46.8,733.4 C -104.1,699.3 -143.4,647.1 -130.0,587.5 C -116.6,528.0 -50.5,557.2 6.7,495.3 C 64.0,433.3 46.1,346.6 99.0,339.8 C 151.9,333.1 150.6,406.3 218.3,468.3 C 285.9,530.2 359.9,518.2 369.5,587.5 Z" fill="#8C1D2A" />
        <path d="M 375.1,89.2 C 369.8,160.4 415.3,182.6 384.7,221.1 C 354.1,259.6 331.8,230.2 252.7,243.2 C 173.7,256.3 111.9,311.8 68.6,273.3 C 25.4,234.8 80.2,181.7 79.7,89.2 C 79.3,-3.3 23.5,-42.5 66.8,-96.8 C 110.1,-151.0 168.0,-136.1 252.7,-127.9 C 337.5,-119.6 375.2,-118.1 405.7,-63.8 C 436.3,-9.6 380.3,17.9 375.1,89.2 Z" fill="#4A0F15" />
        <path d="M 632.8,544.4 C 629.8,591.8 631.9,618.2 602.0,633.2 C 572.1,648.3 562.1,600.1 513.1,604.7 C 464.1,609.2 431.3,666.5 406.1,651.4 C 380.9,636.3 404.1,589.7 412.3,544.4 C 420.5,499.0 413.5,492.5 438.7,469.9 C 463.9,447.3 469.2,460.6 513.1,453.9 C 557.0,447.3 584.3,420.7 614.2,443.3 C 644.1,465.9 635.9,496.9 632.8,544.4 Z" fill="#2A080C" />
        <path d="M 466.8,-39.6 C 473.4,8.2 474.5,39.8 440.8,69.1 C 407.2,98.3 375.4,88.4 332.2,77.3 C 289.0,66.2 322.2,53.8 268.0,24.6 C 213.8,-4.6 121.5,-1.5 115.5,-39.6 C 109.5,-77.7 189.8,-88.8 244.0,-127.7 C 298.2,-166.7 289.5,-196.9 332.2,-195.4 C 374.8,-194.0 380.9,-160.9 414.5,-122.0 C 448.2,-83.0 460.3,-87.3 466.8,-39.6 Z" fill="#8C1D2A" />
        <path d="M 430.7,1040.3 C 443.4,1089.5 416.1,1127.0 370.0,1164.2 C 323.8,1201.3 297.6,1199.5 246.1,1189.0 C 194.7,1178.6 201.6,1159.5 164.1,1122.3 C 126.7,1085.1 112.7,1097.8 96.3,1040.3 C 79.8,982.9 60.8,941.9 98.3,892.5 C 135.7,843.1 190.9,824.0 246.1,842.8 C 301.3,861.5 272.9,918.1 319.0,967.5 C 365.1,1016.8 418.0,991.2 430.7,1040.3 Z" fill="#4A0F15" />
        <path d="M 1127.1,245.9 C 1117.1,331.6 1057.8,306.0 984.2,397.2 C 910.7,488.4 934.0,585.2 832.9,610.6 C 731.8,636.1 660.4,590.1 579.8,499.0 C 499.3,407.8 495.1,356.8 510.7,245.9 C 526.4,135.0 561.8,134.1 642.4,55.3 C 722.9,-23.4 737.4,-68.9 832.9,-69.1 C 928.4,-69.3 950.9,-24.4 1024.4,54.4 C 1098.0,133.1 1137.2,160.2 1127.1,245.9 Z" fill="#8C1D2A" />
        <path d="M 222.1,958.9 C 204.2,1049.8 151.9,1060.5 79.9,1104.9 C 7.8,1149.2 11.3,1131.9 -66.1,1136.4 C -143.6,1140.8 -193.4,1167.0 -229.9,1122.6 C -266.4,1078.2 -206.1,1046.7 -212.1,958.9 C -218.0,871.0 -290.3,829.9 -253.8,771.2 C -217.3,712.6 -167.5,731.8 -66.1,724.3 C 35.2,716.7 79.6,682.4 151.7,741.1 C 223.7,799.7 240.1,867.9 222.1,958.9 Z" fill="#2A080C" />
        <path d="M 295.9,248.0 C 288.3,318.8 322.8,347.3 289.6,374.4 C 256.5,401.6 234.1,348.9 163.2,356.6 C 92.3,364.3 55.7,432.4 6.0,405.2 C -43.7,378.1 -44.4,317.7 -35.5,248.0 C -26.5,178.3 -7.9,156.1 41.8,126.6 C 91.5,97.1 93.7,138.7 163.2,129.9 C 232.8,121.1 286.7,61.8 319.9,91.4 C 353.0,120.9 303.4,177.2 295.9,248.0 Z" fill="#D94856" />
        <path d="M 647.1,208.5 C 659.3,251.8 626.4,294.3 582.6,319.6 C 538.7,344.9 525.1,311.5 471.5,309.6 C 417.9,307.6 400.8,337.1 368.2,311.8 C 335.7,286.5 328.7,247.6 341.3,208.5 C 353.8,169.5 386.0,190.6 418.6,155.6 C 451.1,120.6 442.7,70.8 471.5,68.6 C 500.2,66.3 489.6,111.5 533.5,146.5 C 577.4,181.5 634.8,165.3 647.1,208.5 Z" fill="#A62635" />
        <path d="M 1188.9,937.3 C 1190.9,975.6 1153.9,970.3 1115.3,1017.9 C 1076.8,1065.5 1076.5,1126.2 1034.7,1127.6 C 993.0,1129.1 1004.0,1071.2 948.4,1023.7 C 892.8,976.1 808.9,976.9 812.5,937.3 C 816.0,897.7 907.1,915.1 962.7,865.2 C 1018.2,815.3 998.6,737.8 1034.7,737.6 C 1070.9,737.5 1068.9,814.7 1107.4,864.6 C 1146.0,914.5 1186.9,899.0 1188.9,937.3 Z" fill="#4A0F15" />
        <path d="M 293.9,842.8 C 285.8,905.1 308.6,913.0 277.4,951.1 C 246.2,989.3 211.2,1007.4 169.1,995.4 C 127.0,983.3 156.6,941.2 108.8,903.1 C 61.1,865.0 -1.4,893.5 -21.9,842.8 C -42.4,792.2 -20.9,738.8 26.8,700.6 C 74.6,662.4 98.3,689.7 169.1,690.1 C 239.9,690.5 278.7,663.9 309.9,702.1 C 341.1,740.3 302.0,780.6 293.9,842.8 Z" fill="#4A0F15" />
        <path d="M 539.8,408.4 C 543.4,466.4 570.4,492.0 539.4,531.7 C 508.5,571.3 477.8,566.9 416.1,566.9 C 354.5,566.8 315.0,571.2 292.9,531.6 C 270.8,492.0 334.0,476.3 327.7,408.4 C 321.5,340.4 245.6,284.6 267.7,260.0 C 289.8,235.3 351.8,300.0 416.1,309.8 C 480.5,319.7 494.2,274.7 525.1,299.3 C 556.1,324.0 536.3,350.3 539.8,408.4 Z" fill="#D94856" />
        <path d="M 804.0,970.3 C 808.0,1013.6 797.2,1037.6 763.3,1065.1 C 729.4,1092.5 707.6,1088.5 668.5,1080.2 C 629.4,1071.9 628.2,1059.3 606.9,1031.9 C 585.6,1004.4 580.3,998.1 583.3,970.3 C 586.2,942.4 597.3,939.0 618.6,920.4 C 639.9,901.8 636.4,903.0 668.5,895.8 C 700.6,888.6 713.3,873.0 747.2,891.6 C 781.0,910.2 800.0,926.9 804.0,970.3 Z" fill="#4A0F15" />
        <path d="M 1342.2,828.0 C 1372.7,906.3 1346.3,1003.3 1275.2,1045.6 C 1204.1,1087.9 1151.4,1012.2 1057.7,997.2 C 964.0,982.1 953.4,1027.6 900.4,985.3 C 847.4,943.0 837.6,898.7 845.6,828.0 C 853.6,757.4 879.3,750.4 932.3,702.7 C 985.3,655.0 1002.5,629.7 1057.7,637.2 C 1112.9,644.7 1082.0,684.9 1153.1,732.6 C 1224.2,780.3 1311.7,749.8 1342.2,828.0 Z" fill="#8C1D2A" />
        <path d="M 294.9,30.8 C 289.5,78.9 243.2,63.5 197.5,116.2 C 151.8,168.9 156.7,239.6 112.1,241.6 C 67.4,243.5 81.3,176.6 18.9,124.0 C -43.4,71.3 -141.2,73.4 -137.3,30.8 C -133.3,-11.9 -27.7,-0.0 34.7,-46.6 C 97.0,-93.2 66.0,-148.1 112.1,-155.5 C 158.2,-162.9 173.3,-122.7 219.0,-76.2 C 264.7,-29.6 300.3,-17.3 294.9,30.8 Z" fill="#2A080C" />
        <path d="M 1001.6,670.1 C 992.6,743.6 1025.5,751.7 990.4,799.2 C 955.4,846.8 929.1,857.0 861.3,860.2 C 793.4,863.5 755.7,859.9 719.0,812.3 C 682.3,764.8 716.2,742.9 714.5,670.1 C 712.8,597.2 675.4,563.3 712.1,520.9 C 748.8,478.6 782.8,504.7 861.3,500.8 C 939.8,496.8 991.1,462.9 1026.1,505.2 C 1061.2,547.6 1010.5,596.6 1001.6,670.1 Z" fill="#A62635" />
        <path d="M 809.3,1097.0 C 816.6,1142.4 852.8,1168.8 832.2,1202.3 C 811.6,1235.9 777.2,1233.7 726.9,1231.4 C 676.6,1229.0 658.3,1226.5 631.0,1192.9 C 603.7,1159.3 623.5,1151.0 617.5,1097.0 C 611.5,1043.1 579.7,1014.4 607.0,977.2 C 634.3,940.0 677.9,937.3 726.9,948.2 C 775.9,959.2 782.3,983.7 803.0,1020.9 C 823.6,1058.1 802.0,1051.7 809.3,1097.0 Z" fill="#D94856" />
        <path d="M 628.6,196.1 C 628.3,250.4 588.0,263.9 538.5,304.1 C 489.0,344.4 482.0,359.6 430.5,357.1 C 379.0,354.6 360.9,334.3 332.5,294.0 C 304.1,253.8 324.8,253.0 316.9,196.1 C 309.0,139.2 272.4,88.0 300.8,66.4 C 329.2,44.8 370.7,104.6 430.5,109.7 C 490.2,114.8 490.2,65.2 539.7,86.8 C 589.3,108.4 628.9,141.8 628.6,196.1 Z" fill="#D94856" />
        <path d="M 793.6,63.7 C 797.8,132.0 866.5,157.3 842.5,208.6 C 818.5,259.9 761.2,277.9 697.7,269.0 C 634.2,260.1 632.3,224.3 588.4,173.0 C 544.5,121.7 523.2,119.5 522.1,63.7 C 521.0,8.0 540.0,-5.8 583.9,-50.0 C 627.8,-94.3 637.2,-109.7 697.7,-113.3 C 758.1,-116.9 801.8,-108.6 825.8,-64.3 C 849.7,-20.1 789.4,-4.5 793.6,63.7 Z" fill="#8C1D2A" />
        <path d="M 695.1,581.6 C 732.1,674.4 716.1,776.8 636.5,841.3 C 557.0,905.8 498.1,848.2 376.9,839.5 C 255.6,830.9 243.3,871.2 151.7,806.8 C 60.1,742.3 17.3,701.0 10.4,581.6 C 3.6,462.2 32.7,381.8 124.3,329.1 C 215.9,276.4 285.9,335.4 376.9,370.7 C 467.8,406.0 408.7,417.5 488.2,470.3 C 567.8,523.0 658.0,488.9 695.1,581.6 Z" fill="#8C1D2A" />
        <path d="M 650.2,258.8 C 631.0,343.7 547.7,342.6 469.7,390.4 C 391.7,438.1 415.3,438.5 338.1,449.9 C 260.9,461.3 222.3,483.7 160.9,435.9 C 99.5,388.2 107.9,362.7 92.5,258.8 C 77.1,154.8 38.1,82.8 99.5,20.1 C 160.9,-42.6 226.4,0.4 338.1,7.9 C 449.9,15.5 468.4,-12.3 546.4,50.4 C 624.4,113.2 669.3,173.8 650.2,258.8 Z" fill="#4A0F15" />
        <path d="M 403.3,311.6 C 407.6,361.1 400.2,368.5 363.3,419.1 C 326.4,469.7 317.2,506.3 255.8,514.0 C 194.4,521.6 161.0,500.2 117.7,449.7 C 74.5,399.1 88.3,386.0 83.0,311.6 C 77.6,237.2 53.1,179.4 96.3,152.1 C 139.5,124.9 193.3,185.4 255.8,202.7 C 318.3,220.0 309.3,194.0 346.2,221.2 C 383.1,248.5 399.1,262.1 403.3,311.6 Z" fill="#4A0F15" />
        <path d="M 1126.6,174.4 C 1122.6,233.9 1085.6,211.4 1034.9,285.3 C 984.3,359.1 1003.6,445.7 924.0,469.8 C 844.4,493.9 773.5,455.7 716.6,381.8 C 659.7,308.0 678.3,259.9 696.5,174.4 C 714.6,88.8 732.4,84.0 789.3,39.7 C 846.2,-4.7 858.6,-4.7 924.0,-2.8 C 989.5,-1.0 1000.5,2.9 1051.2,47.2 C 1101.8,91.5 1130.7,114.9 1126.6,174.4 Z" fill="#A62635" />
        <path d="M 70.7,720.8 C 72.5,749.5 74.1,765.6 55.0,781.7 C 35.9,797.8 23.9,786.1 -5.9,785.4 C -35.6,784.7 -32.2,795.1 -64.0,779.0 C -95.9,762.8 -128.5,754.8 -133.4,720.8 C -138.3,686.9 -115.5,656.8 -83.6,643.1 C -51.7,629.4 -38.7,659.9 -5.9,665.9 C 27.0,671.9 28.7,653.4 47.8,667.1 C 66.9,680.9 68.9,692.2 70.7,720.8 Z" fill="#A62635" />
        <path d="M 1132.0,1022.9 C 1155.2,1089.6 1220.0,1155.1 1189.4,1202.7 C 1158.7,1250.4 1081.2,1231.7 1009.5,1213.5 C 937.8,1195.3 951.6,1177.6 902.4,1130.0 C 853.3,1082.3 820.4,1084.0 812.8,1022.9 C 805.2,961.7 822.8,926.9 872.0,885.4 C 921.1,843.8 953.3,844.0 1009.5,856.5 C 1065.7,869.1 1066.0,894.1 1096.7,935.7 C 1127.3,977.3 1108.8,956.1 1132.0,1022.9 Z" fill="#D94856" />
        <path d="M 665.1,833.6 C 659.0,891.9 678.8,911.0 648.5,938.1 C 618.3,965.1 593.0,945.0 544.0,941.7 C 495.1,938.4 476.0,951.9 452.7,924.9 C 429.4,897.8 458.2,886.5 450.9,833.6 C 443.6,780.6 400.2,753.6 423.5,713.0 C 446.7,672.3 481.7,673.0 544.0,671.0 C 606.3,668.9 642.5,664.2 672.8,704.8 C 703.0,745.5 671.1,775.2 665.1,833.6 Z" fill="#4A0F15" />
        <path d="M 359.7,49.5 C 373.1,126.2 294.8,152.0 213.1,229.8 C 131.4,307.7 130.5,353.6 32.8,361.1 C -64.9,368.6 -105.0,337.7 -177.5,259.8 C -250.1,182.0 -282.2,129.7 -257.3,49.5 C -232.3,-30.7 -150.2,-20.3 -77.7,-61.0 C -5.2,-101.7 -26.5,-109.1 32.8,-113.1 C 92.1,-117.2 77.7,-117.7 159.4,-77.1 C 241.1,-36.4 346.3,-27.2 359.7,49.5 Z" fill="#A62635" />
        <path d="M 1058.7,231.2 C 1025.5,323.0 913.8,298.5 826.5,348.4 C 739.2,398.3 781.6,417.3 709.4,430.9 C 637.1,444.6 626.8,452.9 537.6,403.0 C 448.5,353.0 356.0,320.4 352.6,231.2 C 349.3,142.0 435.0,95.8 524.2,46.1 C 613.4,-3.5 600.6,48.9 709.4,32.7 C 818.2,16.4 872.1,-68.5 959.4,-18.8 C 1046.8,30.8 1091.9,139.4 1058.7,231.2 Z" fill="#2A080C" />
        <path d="M 297.7,644.3 C 312.4,708.8 274.0,773.3 213.3,802.6 C 152.6,832.0 124.6,771.3 55.0,761.8 C -14.7,752.4 -36.1,794.1 -65.4,764.7 C -94.8,735.4 -69.5,697.5 -62.5,644.3 C -55.5,591.1 -66.8,589.4 -37.4,552.0 C -8.1,514.5 7.0,496.4 55.0,494.6 C 102.9,492.8 93.7,507.4 154.4,544.9 C 215.1,582.3 283.0,579.9 297.7,644.3 Z" fill="#A62635" />
        <path d="M 925.7,7.0 C 932.0,72.4 996.8,107.9 972.7,150.2 C 948.7,192.4 897.9,179.1 829.5,175.9 C 761.2,172.6 730.8,179.5 699.3,137.3 C 667.7,95.0 688.6,57.5 703.2,7.0 C 717.8,-43.6 726.1,-21.1 757.6,-64.9 C 789.2,-108.8 782.0,-156.9 829.5,-168.5 C 877.1,-180.1 923.8,-155.2 947.9,-111.4 C 971.9,-67.5 919.5,-58.4 925.7,7.0 Z" fill="#4A0F15" />
        <path d="M 995.1,-65.8 C 991.4,-17.3 934.4,0.5 884.3,23.8 C 834.1,47.2 851.2,15.7 794.6,27.5 C 737.9,39.4 690.5,94.4 657.7,71.1 C 624.8,47.7 651.1,-9.5 663.2,-65.8 C 675.3,-122.2 673.1,-123.0 706.0,-154.5 C 738.8,-185.9 746.3,-187.5 794.6,-191.5 C 842.8,-195.5 848.9,-201.7 899.0,-170.3 C 949.1,-138.9 998.8,-114.4 995.1,-65.8 Z" fill="#A62635" />

        
        <!-- Inner Bezel Ring (Simulates 3D casing) -->
        <circle cx="512" cy="512" r="508" fill="none" stroke="#ffffff" stroke-width="4" opacity="0.15" />
        <circle cx="512" cy="512" r="512" fill="none" stroke="#2B070B" stroke-width="12" opacity="0.6" />

        <!-- Calculator Display Screen -->
        <g>
            <!-- Screen Shadow Base -->
            <rect x="220" y="158" width="584" height="220" rx="35" fill="#000000" opacity="0.4" />
            <!-- Inner Screen -->
            <rect x="220" y="150" width="584" height="220" rx="35" fill="#110506" />
            <!-- Screen Rim Border -->
            <rect x="220" y="150" width="584" height="220" rx="35" fill="none" stroke="#2A080C" stroke-width="4" />
            <!-- Screen Glass Reflection -->
            <path d="M 220 220 Q 512 250 804 220 L 804 150 Q 512 170 220 150 Z" fill="#ffffff" opacity="0.04" />
            
            <!-- Display Text -->
            <text x="760" y="315" font-family="'Parisienne', cursive" font-size="120" fill="#F8F8F8" text-anchor="end" font-weight="normal" letter-spacing="-2">Vincent</text>
        </g>

        <!-- Buttons Grid -->

        <!-- Button: 7 -->
        <g>
            <!-- Drop Shadow for compatibility without filters -->
            <circle cx="287" cy="465" r="60" fill="#000000" opacity="0.4" />
            
            <!-- Main Button Face -->
            <circle cx="287" cy="460" r="60" fill="#161616" />
            
            <!-- Button Text -->
            <!-- Adjusted Y to optically center text inside circle -->
            <text x="287" y="482" font-family="'Lato', sans-serif" font-size="60" fill="#FFFFFF" text-anchor="middle" font-weight="bold">7</text>
        </g>

        <!-- Button: 8 -->
        <g>
            <!-- Drop Shadow for compatibility without filters -->
            <circle cx="437" cy="465" r="60" fill="#000000" opacity="0.4" />
            
            <!-- Main Button Face -->
            <circle cx="437" cy="460" r="60" fill="#161616" />
            
            <!-- Button Text -->
            <!-- Adjusted Y to optically center text inside circle -->
            <text x="437" y="482" font-family="'Lato', sans-serif" font-size="60" fill="#FFFFFF" text-anchor="middle" font-weight="bold">8</text>
        </g>

        <!-- Button: 9 -->
        <g>
            <!-- Drop Shadow for compatibility without filters -->
            <circle cx="587" cy="465" r="60" fill="#000000" opacity="0.4" />
            
            <!-- Main Button Face -->
            <circle cx="587" cy="460" r="60" fill="#161616" />
            
            <!-- Button Text -->
            <!-- Adjusted Y to optically center text inside circle -->
            <text x="587" y="482" font-family="'Lato', sans-serif" font-size="60" fill="#FFFFFF" text-anchor="middle" font-weight="bold">9</text>
        </g>

        <!-- Button: ÷ -->
        <g>
            <!-- Drop Shadow for compatibility without filters -->
            <circle cx="737" cy="465" r="60" fill="#000000" opacity="0.4" />
            
            <!-- Main Button Face -->
            <circle cx="737" cy="460" r="60" fill="#3D0B11" />
            
            <!-- Button Text -->
            <!-- Adjusted Y to optically center text inside circle -->
            <text x="737" y="482" font-family="'Lato', sans-serif" font-size="60" fill="#FFFFFF" text-anchor="middle" font-weight="bold">÷</text>
        </g>

        <!-- Button: 4 -->
        <g>
            <!-- Drop Shadow for compatibility without filters -->
            <circle cx="287" cy="600" r="60" fill="#000000" opacity="0.4" />
            
            <!-- Main Button Face -->
            <circle cx="287" cy="595" r="60" fill="#161616" />
            
            <!-- Button Text -->
            <!-- Adjusted Y to optically center text inside circle -->
            <text x="287" y="617" font-family="'Lato', sans-serif" font-size="60" fill="#FFFFFF" text-anchor="middle" font-weight="bold">4</text>
        </g>

        <!-- Button: 5 -->
        <g>
            <!-- Drop Shadow for compatibility without filters -->
            <circle cx="437" cy="600" r="60" fill="#000000" opacity="0.4" />
            
            <!-- Main Button Face -->
            <circle cx="437" cy="595" r="60" fill="#161616" />
            
            <!-- Button Text -->
            <!-- Adjusted Y to optically center text inside circle -->
            <text x="437" y="617" font-family="'Lato', sans-serif" font-size="60" fill="#FFFFFF" text-anchor="middle" font-weight="bold">5</text>
        </g>

        <!-- Button: 6 -->
        <g>
            <!-- Drop Shadow for compatibility without filters -->
            <circle cx="587" cy="600" r="60" fill="#000000" opacity="0.4" />
            
            <!-- Main Button Face -->
            <circle cx="587" cy="595" r="60" fill="#161616" />
            
            <!-- Button Text -->
            <!-- Adjusted Y to optically center text inside circle -->
            <text x="587" y="617" font-family="'Lato', sans-serif" font-size="60" fill="#FFFFFF" text-anchor="middle" font-weight="bold">6</text>
        </g>

        <!-- Button: × -->
        <g>
            <!-- Drop Shadow for compatibility without filters -->
            <circle cx="737" cy="600" r="60" fill="#000000" opacity="0.4" />
            
            <!-- Main Button Face -->
            <circle cx="737" cy="595" r="60" fill="#3D0B11" />
            
            <!-- Button Text -->
            <!-- Adjusted Y to optically center text inside circle -->
            <text x="737" y="617" font-family="'Lato', sans-serif" font-size="60" fill="#FFFFFF" text-anchor="middle" font-weight="bold">×</text>
        </g>

        <!-- Button: 1 -->
        <g>
            <!-- Drop Shadow for compatibility without filters -->
            <circle cx="287" cy="735" r="60" fill="#000000" opacity="0.4" />
            
            <!-- Main Button Face -->
            <circle cx="287" cy="730" r="60" fill="#161616" />
            
            <!-- Button Text -->
            <!-- Adjusted Y to optically center text inside circle -->
            <text x="287" y="752" font-family="'Lato', sans-serif" font-size="60" fill="#FFFFFF" text-anchor="middle" font-weight="bold">1</text>
        </g>

        <!-- Button: 2 -->
        <g>
            <!-- Drop Shadow for compatibility without filters -->
            <circle cx="437" cy="735" r="60" fill="#000000" opacity="0.4" />
            
            <!-- Main Button Face -->
            <circle cx="437" cy="730" r="60" fill="#161616" />
            
            <!-- Button Text -->
            <!-- Adjusted Y to optically center text inside circle -->
            <text x="437" y="752" font-family="'Lato', sans-serif" font-size="60" fill="#FFFFFF" text-anchor="middle" font-weight="bold">2</text>
        </g>

        <!-- Button: 3 -->
        <g>
            <!-- Drop Shadow for compatibility without filters -->
            <circle cx="587" cy="735" r="60" fill="#000000" opacity="0.4" />
            
            <!-- Main Button Face -->
            <circle cx="587" cy="730" r="60" fill="#161616" />
            
            <!-- Button Text -->
            <!-- Adjusted Y to optically center text inside circle -->
            <text x="587" y="752" font-family="'Lato', sans-serif" font-size="60" fill="#FFFFFF" text-anchor="middle" font-weight="bold">3</text>
        </g>

        <!-- Button: − -->
        <g>
            <!-- Drop Shadow for compatibility without filters -->
            <circle cx="737" cy="735" r="60" fill="#000000" opacity="0.4" />
            
            <!-- Main Button Face -->
            <circle cx="737" cy="730" r="60" fill="#3D0B11" />
            
            <!-- Button Text -->
            <!-- Adjusted Y to optically center text inside circle -->
            <text x="737" y="752" font-family="'Lato', sans-serif" font-size="60" fill="#FFFFFF" text-anchor="middle" font-weight="bold">−</text>
        </g>

        <!-- Button: C -->
        <g>
            <!-- Drop Shadow for compatibility without filters -->
            <circle cx="287" cy="870" r="60" fill="#000000" opacity="0.4" />
            
            <!-- Main Button Face -->
            <circle cx="287" cy="865" r="60" fill="#E5E5E5" />
            
            <!-- Button Text -->
            <!-- Adjusted Y to optically center text inside circle -->
            <text x="287" y="887" font-family="'Lato', sans-serif" font-size="60" fill="#961923" text-anchor="middle" font-weight="bold">C</text>
        </g>

        <!-- Button: 0 -->
        <g>
            <!-- Drop Shadow for compatibility without filters -->
            <circle cx="437" cy="870" r="60" fill="#000000" opacity="0.4" />
            
            <!-- Main Button Face -->
            <circle cx="437" cy="865" r="60" fill="#161616" />
            
            <!-- Button Text -->
            <!-- Adjusted Y to optically center text inside circle -->
            <text x="437" y="887" font-family="'Lato', sans-serif" font-size="60" fill="#FFFFFF" text-anchor="middle" font-weight="bold">0</text>
        </g>

        <!-- Button: = -->
        <g>
            <!-- Drop Shadow for compatibility without filters -->
            <circle cx="587" cy="870" r="60" fill="#000000" opacity="0.4" />
            
            <!-- Main Button Face -->
            <circle cx="587" cy="865" r="60" fill="#E5E5E5" />
            
            <!-- Button Text -->
            <!-- Adjusted Y to optically center text inside circle -->
            <text x="587" y="887" font-family="'Lato', sans-serif" font-size="60" fill="#961923" text-anchor="middle" font-weight="bold">=</text>
        </g>

        <!-- Button: + -->
        <g>
            <!-- Drop Shadow for compatibility without filters -->
            <circle cx="737" cy="870" r="60" fill="#000000" opacity="0.4" />
            
            <!-- Main Button Face -->
            <circle cx="737" cy="865" r="60" fill="#3D0B11" />
            
            <!-- Button Text -->
            <!-- Adjusted Y to optically center text inside circle -->
            <text x="737" y="887" font-family="'Lato', sans-serif" font-size="60" fill="#FFFFFF" text-anchor="middle" font-weight="bold">+</text>
        </g>

    </g>
</svg>